<?xml version="1.0" ?><svg style="enable-background:new 0 0 48 48;" version="1.1" viewBox="0 0 48 48" xml:space="preserve" xmlns="http://www.w3.org/2000/svg" xmlns:xlink="http://www.w3.org/1999/xlink"><g id="Icons"><g><path d="M25.595,38.425h6.69c1.02,0,1.85-0.83,1.85-1.86v-13.52l3.49-1.81l-13.64-11.66l-13.61,11.66    l3.49,1.81v13.52c0,1.03,0.83,1.86,1.86,1.86h6.68v-5.96h3.19V38.425z" style="fill:#0097D3;"/><path d="    M25.595,38.425h6.69c1.02,0,1.85-0.83,1.85-1.86v-13.52l3.49-1.81l-13.64-11.66l-13.61,11.66l3.49,1.81v13.52    c0,1.03,0.83,1.86,1.86,1.86h6.68v-5.96h3.19V38.425z" style="fill:none;stroke:#303030;stroke-width:0.7;stroke-linecap:round;stroke-linejoin:round;stroke-miterlimit:10;"/><line style="fill:none;stroke:#303030;stroke-width:0.7;stroke-linecap:round;stroke-linejoin:round;stroke-miterlimit:10;" x1="22.405" x2="17.48294" y1="13.21911" y2="17.58361"/><line style="fill:none;stroke:#303030;stroke-width:0.7;stroke-linecap:round;stroke-linejoin:round;stroke-miterlimit:10;" x1="16.29157" x2="15.70495" y1="18.75067" y2="19.27611"/></g></g></svg>